<?xml version="1.0" standalone="no"?>
<!DOCTYPE svg PUBLIC "-//W3C//DTD SVG 20010904//EN"
 "http://www.w3.org/TR/2001/REC-SVG-20010904/DTD/svg10.dtd">
<svg version="1.0" xmlns="http://www.w3.org/2000/svg"
 width="1011.000000pt" height="328.000000pt" viewBox="0 0 1011.000000 328.000000"
 preserveAspectRatio="xMidYMid meet">
<metadata>
Created by potrace 1.16, written by Peter Selinger 2001-2019
</metadata>
<g transform="translate(0.000000,328.000000) scale(0.100000,-0.100000)"
fill="#000000" stroke="none">
<path d="M974 2789 c-319 -182 -592 -343 -607 -358 -16 -14 -34 -35 -40 -46
-8 -14 -10 -229 -9 -735 l3 -715 23 -35 c18 -26 74 -64 222 -151 110 -64 374
-219 589 -344 214 -126 400 -231 413 -233 13 -3 31 3 42 13 19 17 20 33 20
307 0 233 -3 294 -15 317 -10 21 -93 74 -327 211 -172 101 -324 194 -338 207
l-25 23 0 401 0 401 27 23 c14 12 161 100 327 194 177 101 310 184 325 202
l26 31 0 293 c0 318 -1 325 -55 325 -12 0 -283 -149 -601 -331z"/>
<path d="M7103 2471 c-99 -25 -145 -131 -90 -212 58 -87 208 -93 267 -9 83
116 -30 256 -177 221z"/>
<path d="M3360 1810 l0 -590 130 0 130 0 0 238 c0 142 5 253 11 277 31 110
191 172 278 108 72 -55 80 -90 80 -395 l1 -228 125 0 125 0 0 288 c0 295 -6
346 -44 419 -26 51 -84 103 -145 131 -122 56 -325 36 -408 -41 l-23 -20 0 201
0 202 -130 0 -130 0 0 -590z"/>
<path d="M8300 1810 l0 -590 130 0 130 0 0 590 0 590 -130 0 -130 0 0 -590z"/>
<path d="M2773 2075 c-161 -45 -277 -154 -318 -299 -13 -45 -16 -84 -13 -158
4 -85 9 -106 38 -165 56 -112 151 -190 284 -231 70 -21 235 -21 305 1 99 31
185 97 225 174 l14 29 -94 52 c-52 29 -98 52 -103 52 -5 0 -21 -16 -35 -35
-38 -49 -93 -75 -161 -75 -124 0 -215 94 -215 222 0 80 17 125 64 172 97 98
248 82 329 -34 14 -21 15 -21 111 30 53 29 98 55 100 58 8 14 -65 113 -105
141 -73 53 -142 73 -264 77 -76 3 -126 -1 -162 -11z"/>
<path d="M4798 2074 c-25 -8 -69 -29 -97 -48 l-51 -35 0 45 0 44 -125 0 -125
0 0 -430 0 -430 129 0 130 0 3 248 c3 237 4 249 26 287 13 22 37 50 55 62 38
27 128 47 168 39 l29 -5 0 119 0 120 -47 -1 c-27 0 -69 -7 -95 -15z"/>
<path d="M5283 2076 c-131 -32 -258 -138 -304 -253 -20 -49 -24 -76 -24 -178
0 -110 2 -125 27 -178 55 -117 137 -191 261 -235 95 -34 249 -36 344 -4 214
69 329 257 301 490 -20 169 -149 311 -323 357 -70 18 -209 18 -282 1z m222
-215 c49 -22 99 -77 115 -126 17 -53 9 -162 -16 -210 -11 -22 -40 -53 -63 -70
-39 -27 -50 -30 -120 -30 -69 0 -82 3 -119 29 -108 74 -125 260 -34 358 62 65
158 85 237 49z"/>
<path d="M6373 2071 c-29 -10 -68 -30 -87 -44 -19 -15 -37 -27 -40 -27 -3 0
-6 18 -6 40 l0 40 -125 0 -125 0 0 -430 0 -430 130 0 130 0 0 238 c0 142 5
253 11 277 31 110 191 172 278 108 72 -55 80 -90 80 -395 l1 -228 125 0 125 0
0 288 c0 295 -6 346 -44 419 -26 51 -84 103 -145 131 -75 35 -228 41 -308 13z"/>
<path d="M7713 2075 c-161 -45 -277 -154 -318 -299 -13 -45 -16 -84 -13 -158
4 -85 9 -106 38 -165 56 -112 151 -190 284 -231 70 -21 235 -21 305 1 99 31
185 97 225 174 l14 29 -94 52 c-52 29 -98 52 -103 52 -5 0 -21 -16 -35 -35
-38 -49 -93 -75 -161 -75 -124 0 -215 94 -215 222 0 80 17 125 64 172 97 98
248 82 329 -34 14 -21 15 -21 111 30 53 29 98 55 100 58 8 14 -65 113 -105
141 -73 53 -142 73 -264 77 -76 3 -126 -1 -162 -11z"/>
<path d="M8983 2075 c-150 -41 -261 -146 -304 -287 -32 -104 -24 -240 19 -332
54 -116 164 -203 302 -237 87 -22 252 -17 329 10 65 23 131 62 163 98 17 19
16 22 -50 93 l-69 74 -47 -31 c-110 -73 -261 -66 -349 16 -26 23 -57 71 -57
86 0 3 144 5 319 5 l320 0 6 43 c9 63 -11 174 -46 245 -54 110 -159 193 -280
221 -62 15 -195 12 -256 -4z m250 -214 c35 -21 87 -93 87 -119 0 -9 -55 -12
-200 -12 -216 0 -216 0 -189 53 54 105 198 142 302 78z"/>
<path d="M1495 2019 c-178 -98 -219 -126 -237 -157 -15 -26 -18 -57 -18 -215
0 -175 1 -186 23 -218 30 -45 326 -219 372 -219 34 0 319 157 361 199 24 23
24 26 24 230 l0 207 -27 31 c-39 44 -319 203 -358 203 -19 0 -73 -24 -140 -61z"/>
<path d="M7020 1650 l0 -430 130 0 130 0 0 430 0 430 -130 0 -130 0 0 -430z"/>
</g>
</svg>
