<svg id="Layer_1" style="enable-background:new 0 0 24 24;" version="1.1" viewBox="0 0 24 24" xml:space="preserve" xmlns="http://www.w3.org/2000/svg" xmlns:xlink="http://www.w3.org/1999/xlink"><path d="M6.11,9.5c0.27,0,0.52,0.18,0.59,0.45c0.12,0.45,0.3,0.88,0.53,1.28c0.14,0.24,0.1,0.54-0.1,0.73  c-0.24,0.24-0.24,0.62,0,0.86l0.55,0.55c0.24,0.24,0.62,0.24,0.86,0c0.19-0.19,0.49-0.23,0.73-0.1c0.4,0.23,0.83,0.41,1.28,0.53  c0.26,0.07,0.45,0.31,0.45,0.59c0,0.34,0.27,0.61,0.61,0.61h0.78c0.34,0,0.61-0.27,0.61-0.61c0-0.27,0.18-0.52,0.45-0.59  c0.45-0.12,0.88-0.3,1.28-0.53c0.24-0.14,0.54-0.1,0.73,0.1c0.24,0.24,0.62,0.24,0.86,0l0.55-0.55c0.24-0.24,0.24-0.62,0-0.86  c-0.19-0.19-0.23-0.49-0.1-0.73c0.23-0.4,0.41-0.83,0.53-1.28c0.07-0.26,0.31-0.45,0.59-0.45c0.34,0,0.61-0.27,0.61-0.61V8.11  c0-0.34-0.27-0.61-0.61-0.61c-0.27,0-0.52-0.18-0.59-0.45C17.18,6.6,17,6.17,16.77,5.77c-0.14-0.24-0.1-0.54,0.1-0.73  c0.24-0.24,0.24-0.62,0-0.86l-0.55-0.55c-0.24-0.24-0.62-0.24-0.86,0c-0.19,0.19-0.49,0.23-0.73,0.1c-0.4-0.23-0.83-0.41-1.28-0.53  C13.18,3.13,13,2.88,13,2.61C13,2.27,12.73,2,12.39,2h-0.78C11.27,2,11,2.27,11,2.61c0,0.27-0.18,0.52-0.45,0.59  C10.1,3.32,9.67,3.5,9.27,3.73c-0.24,0.14-0.54,0.1-0.73-0.1c-0.24-0.24-0.62-0.24-0.86,0L7.13,4.18c-0.24,0.24-0.24,0.62,0,0.86  c0.19,0.19,0.23,0.49,0.1,0.73C7,6.17,6.82,6.6,6.7,7.05C6.63,7.32,6.38,7.5,6.11,7.5C5.77,7.5,5.5,7.77,5.5,8.11v0.78  C5.5,9.23,5.77,9.5,6.11,9.5z M8.57,7.81c0.27-1.39,1.36-2.48,2.75-2.75c2.46-0.47,4.59,1.66,4.12,4.12  c-0.27,1.39-1.36,2.48-2.75,2.75C10.22,12.4,8.1,10.28,8.57,7.81z"></path><path d="M2.76,17.97l3.51,0.88l1.04,2.53c0.13,0.31,0.41,0.54,0.74,0.6c0.34,0.06,0.68-0.05,0.91-0.3L12,18.46l3.04,3.23  c0.19,0.2,0.46,0.31,0.73,0.31c0.06,0,0.12-0.01,0.18-0.02c0.33-0.06,0.61-0.29,0.74-0.6l1.04-2.53l3.51-0.88  c0.37-0.09,0.65-0.38,0.73-0.75c0.08-0.37-0.05-0.75-0.35-0.99l-2.95-2.38c-0.43-0.35-1.06-0.28-1.41,0.15  c-0.35,0.43-0.28,1.06,0.15,1.41l1.39,1.12l-2.05,0.51c-0.31,0.08-0.56,0.3-0.68,0.59l-0.65,1.57l-2.7-2.87  c-0.38-0.4-1.08-0.4-1.46,0l-2.7,2.87l-0.65-1.57c-0.12-0.29-0.37-0.51-0.68-0.59l-2.05-0.51l1.39-1.12  c0.43-0.35,0.5-0.98,0.15-1.41c-0.35-0.43-0.98-0.5-1.41-0.15l-2.95,2.38c-0.29,0.24-0.43,0.62-0.35,0.99  C2.11,17.59,2.39,17.88,2.76,17.97z"></path><path d="M10.79,10.21c0.2,0.2,0.45,0.29,0.71,0.29s0.51-0.1,0.71-0.29l2-2c0.39-0.39,0.39-1.02,0-1.41s-1.02-0.39-1.41,0L11.5,8.09  l-0.29-0.29c-0.39-0.39-1.02-0.39-1.41,0s-0.39,1.02,0,1.41L10.79,10.21z"></path></svg>