<svg viewBox="0 0 512 512" xmlns="http://www.w3.org/2000/svg"><g id="Welfare_retirement"><path d="M96.2047,58.4351H87.7721V53.2485a5.5,5.5,0,0,0-11,0v6.0981a17.2917,17.2917,0,0,0,5.5,33.6881,6.3,6.3,0,0,1,0,12.6H66.5163a5.5,5.5,0,0,0,0,11h7.9755v7.1489a5.5,5.5,0,1,0,11,0v-7.4609a17.2947,17.2947,0,0,0-3.22-34.2881,6.3,6.3,0,1,1,0-12.6H96.2047a5.5,5.5,0,0,0,0-11Z"></path><path d="M258.4379,46.0317a5.3381,5.3381,0,0,0-7.1334.0436L218.0393,76.3209a5.53,5.53,0,0,0-1.8414,4.8712,5.3422,5.3422,0,0,0,5.2819,4.5523h6.0662a3.1181,3.1181,0,0,1,3.1182,3.1181v27.5857a5.3375,5.3375,0,0,0,5.3374,5.3375h39.6506a5.3376,5.3376,0,0,0,5.3377-5.3375V93.7959H267.4538a4,4,0,0,1,0-8l21.4827-.0515a5.531,5.531,0,0,0,4.6606-2.3942,5.3409,5.3409,0,0,0-.9124-6.936Z"></path><path d="M429.2614,17.2461A70.0681,70.0681,0,0,0,359.55,81.2314h-33.56a6.011,6.011,0,0,0-.9634.0845,69.9657,69.9657,0,0,0-139.4336,0,6.01,6.01,0,0,0-.9644-.0846H151.0707a69.9849,69.9849,0,1,0,0,12H184.63a6.01,6.01,0,0,0,.9644-.0845,69.9657,69.9657,0,0,0,139.4336,0,6.011,6.011,0,0,0,.9634.0844h33.56a69.9769,69.9769,0,1,0,69.711-75.9853ZM81.36,145.2163a57.9851,57.9851,0,1,1,57.9854-57.9849A58.05,58.05,0,0,1,81.36,145.2163Zm173.95,0a57.9851,57.9851,0,1,1,57.9854-57.9849A58.05,58.05,0,0,1,255.31,145.2163Zm173.9512,0a57.9851,57.9851,0,1,1,57.9844-57.9849A58.05,58.05,0,0,1,429.2614,145.2163Z"></path><path d="M426.8361,371.3506a12.9412,12.9412,0,0,0-.7583-8.43c-9.7149-21.6948-19.8809-54.0166-28.544-82.772-8.3833-27.83-26.7963-35.249-36.74-38.2911a38.5585,38.5585,0,0,0,2.397-13.4144c0-1.1934-.0606-2.3726-.1685-3.5381h8.241a6.1668,6.1668,0,0,0,6.2489-5.815,6,6,0,0,0-5.9972-6.185h-8.3242V198.6968a28.8,28.8,0,0,0-28.8-28.8h-19.3a28.8,28.8,0,0,0-28.8,28.8v14.2085h-8.0723A6.1668,6.1668,0,0,0,271.97,218.72a6,6,0,0,0,5.9972,6.1851h7.91c-.1079,1.1655-.1685,2.3447-.1685,3.5381a38.5534,38.5534,0,0,0,2.065,12.4521c-9.376,2.6243-24.4021,9.4694-32.37,27.0752a51.2991,51.2991,0,0,0-4.1778,15.8145L250.1535,293.99A62.9606,62.9606,0,0,0,220.72,268.3689a38.45,38.45,0,0,0,3.6147-13.9584,25.1161,25.1161,0,0,0-17.0063-46.8319,2.8743,2.8743,0,0,1-2.7637-.97,25.1144,25.1144,0,0,0-37.7539.0005,2.87,2.87,0,0,1-2.7617.97,25.1257,25.1257,0,0,0-30.5674,22.7905A25.0548,25.0548,0,0,0,147.0412,254.41a38.4587,38.4587,0,0,0,3.0046,12.6117c-10.9333,3.768-30.3743,13.4307-36.5139,35.6023a218.5918,218.5918,0,0,1-25.9131,59.8877,12.3556,12.3556,0,0,0-1.0049,10.8589,12.5758,12.5758,0,0,0,1.4568,2.7432,20.3755,20.3755,0,0,0-7.9587,16.1054v6.6a6.1667,6.1667,0,0,0,5.8149,6.249,6,6,0,0,0,6.1851-5.9972v-6.8516a8.3932,8.3932,0,0,1,14.5659-5.6869,8.7548,8.7548,0,0,1,2.22,5.9627v97.9241a6.1668,6.1668,0,0,0,5.8149,6.249,6,6,0,0,0,6.1851-5.9972V392.2192a20.3955,20.3955,0,0,0-1.13-6.66l.0225-.0106a4.4765,4.4765,0,0,1,.4682-3.5145c18.78-31.3091,20.3609-53.7525,20.3746-53.9756a4.5,4.5,0,0,1,8.9848.5225c-.0517.9062-1.3633,20.7451-16.8281,49.5965l-3.7227,48.0553a6.0187,6.0187,0,0,0,3.533,5.948,6.1651,6.1651,0,0,0,2.57.5154h12.4577l2.1816,55.7473a10.5531,10.5531,0,0,0,10.5449,10.14h47.7042a10.5529,10.5529,0,0,0,10.5449-10.14l2.1826-55.7476h12.813a6.1749,6.1749,0,0,0,2.6245-.5378,6.0158,6.0158,0,0,0,3.4687-6.1053l-2.3449-21.7534a51.5555,51.5555,0,0,1-13.8636-4.998,19.4434,19.4434,0,0,1-9.1733-22.7071c6.9243-22.3505,2.2134-47.1562,2.165-47.4043a4.5,4.5,0,0,1,8.8316-1.7338c.2163,1.1005,5.2129,27.23-2.4,51.8017a10.4114,10.4114,0,0,0,4.9145,12.1577,46.8393,46.8393,0,0,0,16.0889,4.9331h2.0181c.0171,0,.0337-.004.0507-.0041.0262,0,.0518.0041.0782.0041h28.6113l-6.07,89.979a11.486,11.486,0,0,0,11.46,12.2608H307a11.5013,11.5013,0,0,0,11.4658-10.7935l1.21-82.8589a4.3538,4.3538,0,0,1,8.7067,0l1.2173,82.8589a11.5012,11.5012,0,0,0,11.4658,10.794h26.9062A11.4862,11.4862,0,0,0,379.4274,486.26L369.508,351.1572c1.05,2.846,1.6894,4.5352,1.7075,4.583,4.3388,11.9268,8.6278,21.5766,11.5107,27.6636a13.395,13.395,0,0,0,7.0469,6.7937,13.0785,13.0785,0,0,0,4.8447.9387,12.8293,12.8293,0,0,0,3.8858-.6251V492.3317a6.1667,6.1667,0,0,0,5.8149,6.249,6,6,0,0,0,6.1851-5.9972V390.2429a8.529,8.529,0,0,1,.5759-3.1887,8.3949,8.3949,0,0,1,16.21,3.0635v6.5992a6.1666,6.1666,0,0,0,5.8149,6.249,6,6,0,0,0,6.1851-5.9971v-6.8511A20.4689,20.4689,0,0,0,426.8361,371.3506ZM178.2067,486.5835H161.7458l-2.1094-53.8877h18.57Zm28.46,0h-16.46V432.6958h18.57ZM185.6881,278.5879a26.7864,26.7864,0,0,1-26.2038-21.3972,25.0694,25.0694,0,0,0,18.2536-8.8885,2.409,2.409,0,0,1,2.375-.6215,25.33,25.33,0,0,0,11.15,0,2.4114,2.4114,0,0,1,2.3769.6215,25.0691,25.0691,0,0,0,18.2527,8.8885A26.7864,26.7864,0,0,1,185.6881,278.5879ZM212.83,245.2163a13.1009,13.1009,0,0,1-10.0244-4.6592,14.1189,14.1189,0,0,0-10.8447-4.957,15.1687,15.1687,0,0,0-3.36.3794,13.2654,13.2654,0,0,1-5.8252,0,14.3194,14.3194,0,0,0-14.2031,4.5776,13.12,13.12,0,1,1-7.1484-21.2695,14.8553,14.8553,0,0,0,14.4053-4.7612,13.1141,13.1141,0,0,1,19.72.0005,14.8689,14.8689,0,0,0,14.4062,4.7607,13.1258,13.1258,0,0,1,15.9668,11.8867,13.1242,13.1242,0,0,1-13.0918,14.042Zm88.4676-20.311h46.3051a3.56,3.56,0,0,1,3.5886,3.5021l0,.036a26.7413,26.7413,0,0,1-53.4825,0l0-.0361A3.56,3.56,0,0,1,301.2973,224.9053Zm113.3713,144.208-19.6133,9.9072a.9888.9888,0,0,1-1.3428-.4551c-2.77-5.831-6.9667-15.2363-11.248-27.0024-.1-.2642-10.0859-26.6685-16.62-48.3472a5.9949,5.9949,0,0,0-11.3726-.3312c-.0088.0236-.0176.0473-.0259.071a5.9986,5.9986,0,0,0-.3237,1.5149c-.0039.0493-.0058.099-.0088.1486a6.0387,6.0387,0,0,0,.0015.6912c.0015.0256-.002.05,0,.0764l.0068.093.0005.0091L355.76,327.79H291.3209l1.5137-22.4389a6,6,0,1,0-11.9726-.8076l-5.3838,79.8051h-21.593c7.27-26.8654,8.2673-47.78,5.5686-64.0478l3.706-35.2588a39.3606,39.3606,0,0,1,3.1758-12.1235c6.7837-14.99,20.5642-19.6812,27.2422-21.1036a38.6816,38.6816,0,0,0,61.1367.7726l.2666.0658c8.3193,2.3985,23.8047,6.8628,31.0625,30.9571,8.7734,29.121,19.09,61.8994,29.083,84.2153A.9884.9884,0,0,1,414.6686,369.1133Z"></path><path d="M457.3709,58.1884h.0009a40.4452,40.4452,0,0,1-21.6151-11.5071,9.0641,9.0641,0,0,0-6.4953-2.76H429.26a9.0652,9.0652,0,0,0-6.4945,2.76A40.447,40.447,0,0,1,401.15,58.1884a9.0524,9.0524,0,0,0-7.3532,8.1411A66.9839,66.9839,0,0,0,424.26,127.7041a8.9857,8.9857,0,0,0,10.0021,0c31.2059-20.8207,31.2068-52.2411,30.463-61.3751A9.0513,9.0513,0,0,0,457.3709,58.1884ZM439.6715,91.57h-5.41v5.4107a5,5,0,0,1-10,0V91.57H418.85a5,5,0,0,1,0-10h5.4112V76.1592a5,5,0,0,1,10,0V81.57h5.41a5,5,0,1,1,0,10Z"></path></g></svg>